PathFileType	4	(X/Y/Z)	C:\Users\dbl\Desktop\20210112\20210112\bx_n_0_1801.trc
DataRate	CameraRate	NumFrames	NumMarkers	Units	OrigDataRate	OrigDataStartFrame	OrigNumFrames
50.00	50.00	       7	43	mm	50.00	348	       397
Frame#	Time	Top.Head			R.Acromium			L.Acromium			Sternum			R.ASIS			L.ASIS			V.Sacral			R.Thigh.Upper			R.Thigh.Front			R.Thigh.Rear			R.Knee.Lat			R.Knee.Med			R.Shank.Upper			R.Shank.Front			R.Shank.Rear			R.Ankle.Lat			R.Midfoot.Lat			R.Toe.Lat			R.Toe.Tip			R.Toe.Med			R.Ankle.Med			R.Midfoot.Sup			R.Heel			L.Thigh.Upper			L.Thigh.Front			L.Thigh.Rear			L.Knee.Lat			L.Knee.Med			L.Shank.Upper			L.Shank.Front			L.Shank.Rear			L.Ankle.Lat			L.Midfoot.Lat			L.Toe.Lat			L.Toe.Tip			L.Toe.Med			L.Ankle.Med			L.Midfoot.Sup			L.Heel			origin1 front left			origin2 front right			origin 3 back right			origin 4 back leftt			
		X1	Y1	Z1	X2	Y2	Z2	X3	Y3	Z3	X4	Y4	Z4	X5	Y5	Z5	X6	Y6	Z6	X7	Y7	Z7	X8	Y8	Z8	X9	Y9	Z9	X10	Y10	Z10	X11	Y11	Z11	X12	Y12	Z12	X13	Y13	Z13	X14	Y14	Z14	X15	Y15	Z15	X16	Y16	Z16	X17	Y17	Z17	X18	Y18	Z18	X19	Y19	Z19	X20	Y20	Z20	X21	Y21	Z21	X22	Y22	Z22	X23	Y23	Z23	X24	Y24	Z24	X25	Y25	Z25	X26	Y26	Z26	X27	Y27	Z27	X28	Y28	Z28	X29	Y29	Z29	X30	Y30	Z30	X31	Y31	Z31	X32	Y32	Z32	X33	Y33	Z33	X34	Y34	Z34	X35	Y35	Z35	X36	Y36	Z36	X37	Y37	Z37	X38	Y38	Z38	X39	Y39	Z39	X40	Y40	Z40	X41	Y41	Z41	X42	Y42	Z42	X43	Y43	Z43	

348	6.940	-687.73450	101.92625	1850.67224	-649.21625	-76.22789	1543.83447	-661.68262	283.56177	1541.87366	-547.24939	99.80320	1357.54114	-568.43909	-13.08226	1058.98877	-566.37909	237.45634	1064.88220	-769.12585	97.45808	1055.74744	-643.31549	-75.14798	874.66449	-568.05127	-11.96328	801.10620	-669.10614	-62.89237	759.96753	-695.59143	-36.07322	616.25330	-680.16309	73.51739	575.47876	-705.31024	-32.97248	569.55139	-656.97882	14.54085	519.48956	-751.49042	-43.80042	490.42480	-756.70197	-16.02851	208.10706	-650.39441	-68.23341	161.39052	-608.43616	-75.38094	158.74103	-552.09869	-32.33790	165.71986	-596.83350	24.87197	167.00299	-715.05756	71.88696	216.51851	-672.08655	53.75502	158.12891	-789.76282	44.03309	177.50131	-653.99097	284.89615	875.79059	-564.03198	218.24988	789.97882	-669.30054	267.38821	745.29657	-711.97516	250.66092	642.76190	-672.14783	140.25488	579.62848	-708.56201	243.60768	577.13068	-657.80609	200.42145	535.74469	-750.62549	255.15768	503.92737	-763.74554	224.46938	207.01929	-654.11340	292.52255	156.16516	-617.06519	299.20068	158.24373	-552.64056	247.24910	166.25046	-587.96295	210.78810	173.28491	-711.26575	149.18945	216.07501	-674.15369	166.75005	156.43593	-793.53491	176.35779	186.35355	-528.17889	304.02823	146.58472	-517.62274	-72.84000	143.36465	-875.92236	-78.72702	141.24510	-882.51263	296.13580	144.70930	
349	6.960	-688.72498	101.90752	1850.62708	-649.71368	-76.36458	1543.92090	-662.17120	283.61588	1541.71021	-547.15405	99.61833	1357.71069	-567.87061	-13.18061	1058.78479	-565.78662	237.34549	1064.65308	-768.59100	97.39234	1055.91724	-643.05920	-75.25246	874.56207	-567.89362	-11.95208	800.82324	-668.76184	-63.12991	759.94122	-695.58521	-36.15876	616.10529	-680.26849	73.44273	575.40765	-705.26569	-33.07761	569.46997	-657.00818	14.50813	519.44922	-751.53467	-43.99500	490.47495	-756.64398	-16.04045	208.07570	-650.37372	-68.17530	161.42703	-608.45190	-75.34226	158.76480	-552.08234	-32.28781	165.76086	-596.83429	24.87312	166.97031	-715.04999	71.89104	216.52660	-672.04297	53.73261	158.04398	-789.75354	44.03271	177.48729	-653.72601	284.90741	875.90271	-563.96027	218.30208	789.70648	-669.34149	267.38089	745.29053	-712.47998	250.84502	642.73004	-672.34637	140.29732	579.49261	-708.85010	243.58072	577.13580	-658.00269	200.43428	535.85120	-750.84601	255.18236	504.00589	-763.73492	224.46588	207.01817	-654.13702	292.52557	156.20462	-617.06348	299.20804	158.20370	-552.60559	247.26836	166.23820	-587.94537	210.77051	173.30490	-711.27777	149.24908	216.09761	-674.17761	166.77245	156.46919	-793.52832	176.35074	186.35565	-528.20734	303.99222	146.54918	-517.62494	-72.82500	143.33577	-875.93176	-78.70273	141.22005	-882.49420	296.12653	144.71584	
350	6.980	-689.59241	101.86147	1850.62244	-650.19800	-76.54469	1543.97473	-662.60712	283.62701	1541.55481	-547.07068	99.44582	1357.84912	-567.39600	-13.40343	1058.59961	-565.33105	237.23257	1064.49231	-768.15094	97.32121	1056.08508	-642.90009	-75.31191	874.44788	-567.85590	-11.99866	800.61798	-668.57953	-63.37099	759.92279	-695.73676	-36.27743	616.03052	-680.40259	73.32591	575.38251	-705.32843	-33.21196	569.36346	-657.07794	14.47709	519.41351	-751.61121	-44.20679	490.54242	-756.61493	-16.06512	208.03253	-650.36353	-68.11098	161.45161	-608.48505	-75.33836	158.80652	-552.06989	-32.24263	165.81499	-596.85736	24.86402	166.94359	-715.05267	71.87579	216.53162	-671.99915	53.69669	157.92252	-789.80206	44.01602	177.48424	-653.57654	284.76489	875.93793	-563.98193	218.29971	789.46082	-669.39758	267.34521	745.30353	-713.17596	251.09273	642.64960	-672.52057	140.38332	579.34552	-709.16663	243.61423	577.21497	-658.19604	200.42245	535.95099	-751.08704	255.16295	504.10028	-763.71576	224.46841	207.01088	-654.15582	292.52487	156.23463	-617.08044	299.21109	158.20013	-552.58014	247.29596	166.21729	-587.92645	210.72560	173.34073	-711.30902	149.22690	216.15407	-674.16498	166.75342	156.52962	-793.52698	176.34064	186.36809	-528.24792	304.00021	146.49475	-517.62463	-72.83427	143.33722	-875.94476	-78.69749	141.25110	-882.47144	296.16269	144.75409	
351	7.000	-690.32947	101.78580	1850.62036	-650.65247	-76.71741	1543.99133	-662.97943	283.57266	1541.37708	-547.03363	99.27019	1357.94836	-567.02667	-13.67712	1058.39429	-564.97510	237.06522	1064.39075	-767.78888	97.21998	1056.20068	-642.78674	-75.35022	874.32397	-567.89844	-12.10466	800.44952	-668.51520	-63.64137	759.91138	-695.96594	-36.44230	616.00787	-680.57751	73.16801	575.39105	-705.48376	-33.35738	569.24261	-657.15021	14.43041	519.39655	-751.69666	-44.40969	490.58182	-756.62170	-16.11455	207.98840	-650.36127	-68.06770	161.45160	-608.52448	-75.35880	158.84277	-552.07446	-32.20557	165.86021	-596.89313	24.86382	166.92059	-715.06799	71.85136	216.52478	-671.99335	53.65276	157.78104	-789.90564	43.98046	177.49568	-653.47510	284.50800	875.87238	-564.02136	218.17871	789.26044	-669.43744	267.25525	745.29034	-713.87061	251.34277	642.59381	-672.66364	140.45558	579.23926	-709.45508	243.70671	577.35779	-658.38849	200.39445	536.02173	-751.31879	255.13402	504.16983	-763.70337	224.46890	206.98656	-654.15625	292.52313	156.22525	-617.11298	299.20367	158.23010	-552.59900	247.31081	166.19653	-587.92029	210.68680	173.37950	-711.34961	149.15573	216.23134	-674.11719	166.69902	156.60085	-793.53400	176.33012	186.39087	-528.28125	304.03345	146.43790	-517.61853	-72.86516	143.37094	-875.95685	-78.71580	141.32629	-882.45306	296.21185	144.79794	
352	7.020	-690.94208	101.67990	1850.58728	-651.03406	-76.85344	1543.99133	-663.29974	283.44058	1541.17126	-547.06274	99.06613	1358.00952	-566.78552	-13.94961	1058.15601	-564.67834	236.82529	1064.32947	-767.50464	97.04897	1056.25037	-642.69250	-75.39659	874.19263	-567.97260	-12.25378	800.27454	-668.50580	-63.93211	759.86816	-696.16766	-36.62809	615.98987	-680.81512	72.95316	575.41547	-705.68091	-33.51144	569.12671	-657.19037	14.35584	519.39771	-751.77350	-44.60300	490.56998	-756.64722	-16.18683	207.93936	-650.36212	-68.05181	161.43713	-608.54541	-75.37997	158.84187	-552.09204	-32.18229	165.88480	-596.91791	24.87316	166.90030	-715.09094	71.82982	216.50626	-672.02759	53.61514	157.67595	-790.02850	43.92419	177.51617	-653.39075	284.18713	875.72510	-564.02435	217.92378	789.12561	-669.44647	267.11075	745.23035	-714.35010	251.51567	642.61847	-672.79053	140.43915	579.19696	-709.66235	243.82352	577.52069	-658.56677	200.34616	536.05713	-751.50397	255.11308	504.18457	-763.71399	224.46506	206.94693	-654.13251	292.51761	156.18648	-617.13885	299.19089	158.27095	-552.65906	247.29997	166.18213	-587.93097	210.68317	173.38901	-711.38422	149.09195	216.29131	-674.07068	166.64339	156.64145	-793.55334	176.33073	186.41222	-528.29303	304.06735	146.39987	-517.61066	-72.89617	143.40805	-875.96637	-78.74680	141.40581	-882.44104	296.23740	144.81856	
353	7.040	-691.46014	101.55495	1850.52527	-651.32477	-76.96254	1543.98462	-663.58844	283.24393	1540.96448	-547.16382	98.82778	1358.02722	-566.68652	-14.21315	1057.92029	-564.43329	236.54536	1064.28503	-767.32623	96.81282	1056.25134	-642.62750	-75.48624	874.06293	-568.04633	-12.41717	800.09998	-668.50995	-64.21383	759.76794	-696.27606	-36.80249	615.95575	-681.10181	72.66914	575.43018	-705.83838	-33.69619	569.05078	-657.20306	14.26166	519.40167	-751.82465	-44.80285	490.50439	-756.66693	-16.26615	207.88382	-650.36334	-68.05402	161.42599	-608.53131	-75.38676	158.79964	-552.10645	-32.17474	165.89137	-596.91309	24.88253	166.88219	-715.11627	71.81400	216.48087	-672.07294	53.60032	157.65622	-790.15057	43.84129	177.54538	-653.31445	283.83783	875.54865	-563.99109	217.58963	789.05463	-669.42303	266.94431	745.13171	-714.44177	251.53369	642.71143	-672.92999	140.31282	579.18469	-709.76453	243.91183	577.63519	-658.72101	200.25494	536.06122	-751.62317	255.09099	504.14124	-763.76080	224.45735	206.92155	-654.08685	292.50049	156.15242	-617.13904	299.17874	158.30141	-552.72510	247.27681	166.17690	-587.94904	210.70691	173.35823	-711.40424	149.05916	216.31328	-674.06439	166.63872	156.60509	-793.58466	176.35222	186.41493	-528.27209	304.09213	146.40434	-517.60577	-72.91308	143.42873	-875.97137	-78.78115	141.44601	-882.44159	296.23233	144.80634	
354	7.060	-691.91345	101.42941	1850.45923	-651.53815	-77.08031	1543.95557	-663.84808	283.01950	1540.79260	-547.32672	98.58662	1358.00415	-566.71637	-14.46716	1057.73816	-564.26367	236.28282	1064.22900	-767.27954	96.56998	1056.22571	-642.61871	-75.65507	873.94489	-568.11395	-12.55552	799.97418	-668.52600	-64.45721	759.62543	-696.28302	-36.94626	615.90967	-681.37219	72.36567	575.41162	-705.89661	-33.91793	569.04279	-657.22076	14.16291	519.38983	-751.82983	-45.01297	490.39044	-756.67389	-16.33036	207.83452	-650.35883	-68.06306	161.42567	-608.49469	-75.38063	158.75406	-552.11163	-32.17108	165.88718	-596.88617	24.89338	166.86086	-715.14136	71.80109	216.45238	-672.10083	53.59790	157.69795	-790.28656	43.73677	177.58960	-653.23645	283.48782	875.40076	-563.95697	217.25853	789.02258	-669.38770	266.77405	745.02014	-714.13733	251.38690	642.82159	-673.08844	140.11971	579.13934	-709.77582	243.93425	577.67218	-658.84613	200.11935	536.04150	-751.68958	255.05270	504.07117	-763.83435	224.44585	206.93222	-654.03284	292.47150	156.14508	-617.11591	299.16928	158.31746	-552.77411	247.26657	166.18532	-587.96155	210.72105	173.32520	-711.42377	149.04378	216.29723	-674.11505	166.69684	156.49989	-793.62347	176.38826	186.39415	-528.21796	304.10678	146.45712	-517.60419	-72.91964	143.43718	-875.97070	-78.80935	141.43771	-882.45825	296.21100	144.77377	
